{"title":"Aashiqui 2 untouched hdcam (ICTV) - Hindi","uid":8414368,"size":717998080,"categoryP":"video","categoryS":"movies","magnet":"?xt=urn:btih:eeca47e3f4f6afcbceb1a00f236288fc0f34f85a&amp;dn=Aashiqui+2+untouched+hdcam+%28ICTV%29+-+Hindi&amp;tr=udp%3A%2F%2Ftracker.openbittorrent.com%3A80&amp;tr=udp%3A%2F%2Fopen.demonii.com%3A1337&amp;tr=udp%3A%2F%2Ftracker.coppersurfer.tk%3A6969&amp;tr=udp%3A%2F%2Fexodus.desync.com%3A6969","seeders":1,"leechers":0,"uploader":"SJonam","files":7,"time":1366996243,"description":" &lt;a href=&quot;http://desibbrg.org/images/66952052392581364616.gif&quot; rel=&quot;nofollow&quot; target=&quot;_NEW&quot;&gt;http://desibbrg.org/images/66952052392581364616.gif&lt;/a&gt; &lt;a href=&quot;\nhttp://desibbrg.org/images/09705332623815001370.jpg&quot; rel=&quot;nofollow&quot; target=&quot;_NEW&quot;&gt;\nhttp://desibbrg.org/images/09705332623815001370.jpg&lt;/a&gt; &lt;a href=&quot;\nhttp://desibbrg.org/images/29435033891412213051.png&quot; rel=&quot;nofollow&quot; target=&quot;_NEW&quot;&gt;\nhttp://desibbrg.org/images/29435033891412213051.png&lt;/a&gt; &lt;a href=&quot;\nhttp://desibbrg.org/images/39078678123175116308.png&quot; rel=&quot;nofollow&quot; target=&quot;_NEW&quot;&gt;\nhttp://desibbrg.org/images/39078678123175116308.png&lt;/a&gt; &lt;a href=&quot;\nhttp://desibbrg.org/images/59303906277602709466.png&quot; rel=&quot;nofollow&quot; target=&quot;_NEW&quot;&gt;\nhttp://desibbrg.org/images/59303906277602709466.png&lt;/a&gt; &lt;a href=&quot;\nhttp://desibbrg.org/images/24100959221709643326.png&quot; rel=&quot;nofollow&quot; target=&quot;_NEW&quot;&gt;\nhttp://desibbrg.org/images/24100959221709643326.png&lt;/a&gt;\n\nMedia Info - \nVideo\nFormat : MPEG Video\nFormat version : Version 2\nFormat profile : Main@Main\nFormat settings, BVOP : Yes\nFormat settings, Matrix : Default\nDuration : 2h 5mn\nBit rate mode : Variable\nBit rate : 620 Kbps\nMaximum bit rate : 9 680 Kbps\nWidth : 352 pixels\nHeight : 288 pixels\nDisplay aspect ratio : 4:3\nFrame rate : 25.000 fps\nStandard : PAL\nColor space : YUV\nChroma subsampling : 4:2:0\nBit depth : 8 bits\nScan type : Progressive\nCompression mode : Lossy\nBits/(Pixel*Frame) : 0.245\nStream size : 556 MiB (81%)\n\nAudio\nFormat : MPEG Audio\nFormat version : Version 1\nFormat profile : Layer 2\nDuration : 2h 5mn\nBit rate mode : Constant\nBit rate : 128 Kbps\nChannel(s) : 2 channels\nSampling rate : 48.0 KHz\nCompression mode : Lossy\nStream size : 115 MiB (17%)\n\nSharer : TJ_DA_King\n\nSeeding 24x7... Extreme Seeding...\n\n\nEnjoy!\n","torrent":{"xt":"urn:btih:eeca47e3f4f6afcbceb1a00f236288fc0f34f85a","amp;dn":"Aashiqui+2+untouched+hdcam+%28ICTV%29+-+Hindi","amp;tr":["udp%3A%2F%2Ftracker.openbittorrent.com%3A80","udp%3A%2F%2Fopen.demonii.com%3A1337","udp%3A%2F%2Ftracker.coppersurfer.tk%3A6969","udp%3A%2F%2Fexodus.desync.com%3A6969"],"infoHash":"eeca47e3f4f6afcbceb1a00f236288fc0f34f85a","infoHashBuffer":{"type":"Buffer","data":[238,202,71,227,244,246,175,203,206,177,160,15,35,98,136,252,15,52,248,90]},"announce":[],"urlList":[]}}